<?xml version="1.0" encoding="utf-8"?>
<!-- Generator: Adobe Illustrator 19.1.0, SVG Export Plug-In . SVG Version: 6.00 Build 0)  -->
<svg version="1.1" id="Layer_1" xmlns="http://www.w3.org/2000/svg" xmlns:xlink="http://www.w3.org/1999/xlink" x="0px" y="0px"
	 viewBox="0 0 360 170.4" style="enable-background:new 0 0 360 170.4;" xml:space="preserve">
<style type="text/css">
	.st0{fill:#F28900;}
</style>
<g>
	<polygon points="234.9,45 234.9,45.9 234.9,129.6 234.9,130.4 234.1,130.4 223.8,130.4 223.8,136.1 241.5,136.1 241.5,39.5 
		223.8,39.5 223.8,45 234.1,45 	"/>
	<polygon points="41.9,45.7 41.9,44.9 42.7,44.9 52.9,44.9 52.9,39.5 35.2,39.5 35.2,136.1 52.9,136.1 52.9,130.6 42.7,130.6 
		41.9,130.6 41.9,129.8 	"/>
	<path d="M106.5,103.5c1.4-0.8,2.8-1.6,4.1-2.5c11.8-7.4,23.4-16.1,23.4-33.3c0-16.9-12.3-28.2-30.6-28.2c-9.5,0-17.4,3.1-23,9
		C74.5,54.7,71.5,63.8,72,74l0.1,1h13.5l0-1.1c-0.2-7,1.9-13.6,5.8-17.6c3-3.1,6.8-4.7,11.5-4.7c9.9,0,17.1,6.7,17.1,15.9
		c0,12.1-6.8,17.5-23.6,27.8c-14.2,8.8-25.1,17.3-27,39.4l-0.1,1.2h63.9v-12.2H85C87.4,114.8,96.7,109.3,106.5,103.5z"/>
	<path d="M193.8,101.8V39.5h-13.2l-40.8,59.3l-0.2,2.8v12.3H181V136h12.8v-22.1h12.8v-12.1H193.8z M152.5,101.8l28.5-42v42H152.5z"
		/>
	<path class="st0" d="M258.8,39.5v13.1h49c-21.3,23.4-34.6,53.2-36.5,82.3l-0.1,1.2h15.1l0.1-1c1.7-29.2,17.1-64.5,36.5-83.8
		l0.3-0.3V39.5H258.8z"/>
</g>
</svg>
