<?xml version="1.0" encoding="utf-8"?>
<!-- Generator: Adobe Illustrator 19.1.0, SVG Export Plug-In . SVG Version: 6.00 Build 0)  -->
<svg version="1.1" id="Layer_1" xmlns="http://www.w3.org/2000/svg" xmlns:xlink="http://www.w3.org/1999/xlink" x="0px" y="0px"
	 viewBox="0 0 150 150" style="enable-background:new 0 0 150 150;" xml:space="preserve">
<style type="text/css">
	.st0{opacity:9.000000e-02;}
	.st1{opacity:0.41;fill:#4D4D4D;}
	.st2{opacity:0.13;}
	.st3{clip-path:url(#SVGID_2_);fill:#3FA9F5;}
	.st4{clip-path:url(#SVGID_2_);fill:#F28900;stroke:#FFFFFF;stroke-width:4;stroke-miterlimit:10;}
	.st5{opacity:0.89;clip-path:url(#SVGID_2_);fill:#FFFFFF;}
	.st6{opacity:0.24;}
	.st7{fill:#E34604;}
	.st8{fill:#FFFFFF;stroke:#C1272D;stroke-width:5;stroke-miterlimit:10;}
	.st9{fill:#4D4D4D;}
	.st10{font-family:'NimbusSan-Reg';}
	.st11{font-size:24px;}
</style>
<g class="st0">
	<path class="st1" d="M75,149.3c-34.7,0-63-28.3-63-63c0-34.7,28.3-63,63-63s63,28.3,63,63C138,121.1,109.7,149.3,75,149.3z
		 M75,30.5c-30.8,0-55.9,25.1-55.9,55.9s25.1,55.9,55.9,55.9c30.8,0,55.9-25.1,55.9-55.9S105.8,30.5,75,30.5z"/>
</g>
<circle class="st2" cx="75" cy="86.3" r="63"/>
<g>
	<defs>
		<circle id="SVGID_1_" cx="75" cy="86.3" r="55.7"/>
	</defs>
	<use xlink:href="#SVGID_1_"  style="overflow:visible;fill:#F2F2F2;"/>
	<clipPath id="SVGID_2_">
		<use xlink:href="#SVGID_1_"  style="overflow:visible;"/>
	</clipPath>
	<polygon class="st3" points="112,93 45.6,133.4 41.5,130.5 106.9,90.5 74,74.8 -20.6,120.1 74,165.5 168.6,120.1 	"/>
	<path class="st4" d="M33.1,113.2L33.1,113.2c-3.5-3.8-2.9-8.7,1.5-10.9l13-6.6c4.4-2.2,10.8-0.9,14.3,2.8l0,0
		c3.5,3.8,2.9,8.7-1.5,10.9l-13,6.6C43,118.3,36.6,117,33.1,113.2z"/>
	<rect x="-2.7" y="103.7" class="st5" width="173.3" height="39.3"/>
</g>
<ellipse class="st6" cx="75.2" cy="94.9" rx="9.8" ry="4.6"/>
<path class="st7" d="M110.3,35.6c0-19.5-15.8-35.3-35.3-35.3c-19.5,0-35.3,15.8-35.3,35.3c0,8.5,3,16.4,8.1,22.5
	c3.6,4.4,8.3,7.9,13.7,10.1l11.2,19.3c1.1,1.9,3.8,1.9,4.9,0l11.2-19.3C101.4,62.9,110.3,50.3,110.3,35.6z"/>
<circle class="st8" cx="75" cy="34.6" r="18.6"/>
<text transform="matrix(1 0 0 1 50.2989 128.0069)" class="st9 st10 st11">MAP</text>
</svg>
