<?xml version="1.0" encoding="utf-8"?>
<!-- Generator: Adobe Illustrator 19.1.0, SVG Export Plug-In . SVG Version: 6.00 Build 0)  -->
<svg version="1.1" xmlns="http://www.w3.org/2000/svg" xmlns:xlink="http://www.w3.org/1999/xlink" x="0px" y="0px"
	 viewBox="0 0 960 560" style="enable-background:new 0 0 960 560;" xml:space="preserve">
<style type="text/css">
	.st0{display:none;}
	.st1{fill:#ffffff;}
	.st2{fill:#F28900;}
</style>
<g id="Layer_1" class="st0">
</g>
<g id="Layer_2">
	<g>
		<g>
			<path class="st1" d="M677.9,281.3c-12.1,11.6-18.2,27.9-18.2,49v86.2c0,21.8,6.4,38.5,19.2,50c12.8,11.5,31.3,17.3,55.6,17.3
				h51.5v-62.8H742c-7.6,0-12.7-0.7-15.2-2.2c-2.5-1.4-3.7-4.5-3.7-9.1c0-4.1,1.2-7,3.6-8.7c2.4-1.7,6.5-2.6,12.4-2.6h42.8v-49
				h-36.2c-6.9,0-11.7-0.8-14.4-2.5c-2.7-1.7-4-4.6-4-8.9c0-7.3,5.7-11,17-11h41.8v-63.1h-57C707.1,263.9,690.1,269.7,677.9,281.3z
				 M903.1,323.1c2.6,0,6.2,0.8,11,2.4v-62.7c-8.7-3-17.6-4.5-26.7-4.5c-20.6,0-38.3,7.5-53.1,22.5c-14.8,15-22.2,32.8-22.2,53.6
				c0,17.2,4.9,34.4,14.7,51.5c6.1,10.8,9.2,17.9,9.2,21.1c0,4.9-1.9,9-5.7,12.3c-3.8,3.3-8.6,4.9-14.3,4.9c-4.8,0-10.4-2-16.6-6
				V482c10.3,4.8,20.8,7.2,31.3,7.2c22,0,40.6-7.4,55.8-22.2c15.2-14.8,22.9-32.9,22.9-54.3c0-14.6-4.5-29.7-13.6-45.4l-5-8.7
				c-3.9-6.8-5.8-12.3-5.8-16.8c0-5.2,1.8-9.6,5.3-13.2C893.9,325,898.1,323.1,903.1,323.1z"/>
		</g>
	</g>
	<path class="st2" d="M276.5,49.7c-19,18.9-37.9,37.7-32.5,45.8c5.5,13.5,27.1,0,40.7-8c10.8-8.1,105.7-78.1,170.8-78
		C490.8,9.6,518,23.1,537,44.7c16.3,21.6,19.1,45.9,13.7,70.2c-8.1,29.7-37.9,51.2-75.8,83.5c-40.7,32.3-92.1,75.4-92.1,110.5
		c0,61.8,27.2,43.2,48.9,48.7C447.8,255.1,531.9,212.1,578,212.2c46.1,0.1,84.2,37.9,84.3,86.5c0.1,43.2-35.1,116-165.3,126.6
		l0.1,131.8l-67.9-0.1l-0.1-131.8c-6.5,0.6-12.6,0.6-18.3,0.2c-45.7-114.1-95.7-108.5-95.9-108.3c-0.1-59.4,51.4-113.3,75.8-132.1
		c19-16.2,67.8-56.6,73.2-62c8.1-8.1,21.7-18.9,21.7-29.7c0-10.8-21.7-18.9-51.6-10.9c-29.8,10.7-78.6,37.7-94.9,51.1
		c-32.5,18.8-54.2,32.3-89.5,32.2c-59.7-0.1-78.8-43.3-78.8-67.6c-0.1-35.1,27-64.7,35.2-72.8C214,17.2,222.1,9.1,230.2,1
		L276.5,49.7z M594.5,301.3c0-8.1-8.2-18.9-19-18.9c-16.3,0-59.7,18.8-75.9,78.1C572.8,349.8,594.5,320.2,594.5,301.3z"/>
	<g>
		<g>
			<path class="st1" d="M201.5,336.9c0-21.8-7.9-39.8-23.6-54c-14.1-12.7-34-19-59.6-19H34.1v219.9h65.6V323h11.6
				c15.9,0,23.9,5.2,23.9,15.6c0,11.8-6.9,17.7-20.7,17.7h-5.2v56.5l31.8,70.9H210l-37.8-90.7C191.7,377.9,201.5,359.1,201.5,336.9z
				 M403.7,292.4c-22.4-22.7-49.1-34-80.4-34c-33,0-60.8,11.2-83.6,33.5c-22.8,22.3-34.2,49.6-34.2,81.8c0,31.9,11.3,59.1,33.9,81.7
				c22.6,22.6,49.9,33.8,81.9,33.8c32.2,0,59.6-11.2,82.1-33.7c22.5-22.4,33.8-49.7,33.8-81.8C437.2,342.2,426,315.1,403.7,292.4z
				 M355.9,409.6c-9.4,9.8-20.9,14.7-34.5,14.7c-13.4,0-24.8-4.9-34.3-14.8c-9.5-9.9-14.3-21.8-14.3-35.8c0-14,4.7-25.9,14.2-35.8
				c9.5-9.9,20.9-14.8,34.4-14.8c13.6,0,25.1,4.9,34.5,14.7c9.4,9.8,14.1,21.8,14.1,35.8C370,387.9,365.3,399.8,355.9,409.6z"/>
		</g>
	</g>
</g>
</svg>
