<?xml version="1.0" encoding="iso-8859-1"?>
<!-- Generator: Adobe Illustrator 18.1.1, SVG Export Plug-In . SVG Version: 6.00 Build 0)  -->
<svg version="1.1" id="Capa_1" xmlns="http://www.w3.org/2000/svg" xmlns:xlink="http://www.w3.org/1999/xlink" x="0px" y="0px"
	 viewBox="0 0 98.08 98.08" style="enable-background:new 0 0 98.08 98.08;" xml:space="preserve">
<g>
	<g>
		<path style="fill:#000;" d="M81.289,81.366c-3.164-5.967-2.492-4.373-3.062-7.32c-0.517-2.658-0.257-5.732-0.401-8.918
			c-0.215-4.811-0.663-9.869-0.663-14.109c0-3.728-1.556-4.913-2.396-7.321c-1.223-3.506-2.202-6.713-3.859-8.386
			c-2.01-2.029-4.212-0.741-4.212-0.741c-1.452-3.755-1.833-4.711-3.359-6.567c-1.469-1.785-3.684-1.544-3.684-1.544
			s-1.086-5.391-3.566-8.113c-1.324-1.452-4.051-1.436-5.078-0.938c-0.741,0.361-1.737,1.518-2.779,2.278
			c-2.002,1.464-4.419,4.205-4.419,4.205s-0.41-1.249-1.551-3.481c-0.85-1.663-2.376-3.783-3.597-5.899
			c1.138-1.517,1.821-3.395,1.821-5.436C40.485,4.062,36.422,0,31.41,0c-5.012,0-9.074,4.063-9.074,9.076
			c0,4.289,2.978,7.873,6.976,8.821c0.238,0.846,0.486,1.707,0.744,2.589c0.689,2.358,1.84,5.449,2.794,7.902
			c1.276,3.276,2.349,5.951,2.959,9.393c0.446,2.524,0.183,5.412,0.074,7.823c-0.092,2.049-0.242,4.021-0.48,5.643
			c-0.324,2.214-1.025,3.769-1.4,4.761c-0.281,0.744-0.233,1.369-0.233,1.369s-0.515-0.011-1.128,0.192
			c-0.613,0.198-1,0.715-1,0.715l-1.021-0.687c0,0,0.191-0.369,0-1.028c-0.208-0.722-0.57-1.736-1.084-3.093
			c-0.209-0.555-0.409-1.657-0.573-2.18c-0.431-1.378-1-1.89-1-1.89s0.59-1.894-0.201-3.947c-0.828-2.149-2.651-5.039-4.676-6.956
			c-1.67-1.58-3.03-1.993-4.472-1.774c-1.796,0.271-2.482,2.353-2.147,4.543c0.202,1.325,0.792,3.107,0.931,4.023
			c0.333,2.187-0.873,4.772-0.828,6.28c0.057,1.951,1.074,3.035,2.007,7.16c0.332,1.477,1.295,3.088,1.736,4.775
			c0.653,2.496,1.053,4.875,1.344,5.479c1.538,3.186,7.643,7.182,13.312,12.377c3.193,2.93,6.973,2.941,9.583,5.59
			c1.599,1.623,2.478,4.336,4.126,6.789c6.832,10.176,26.85,0.234,32.108-7.309C82.035,84.645,81.78,82.296,81.289,81.366z
			 M25.781,9.073c0-3.106,2.518-5.626,5.625-5.626s5.625,2.52,5.625,5.626c0,0.595-0.094,1.167-0.265,1.705
			c-1.671-3.482-3.229-6.434-6.533-5.448c-1.148,0.341-2.312,1.494-2.497,3.387c-0.133,1.366,0.09,3.077,0.508,5.007
			C26.758,12.712,25.781,11.007,25.781,9.073z"/>
	</g>
</g>
<g>
</g>
<g>
</g>
<g>
</g>
<g>
</g>
<g>
</g>
<g>
</g>
<g>
</g>
<g>
</g>
<g>
</g>
<g>
</g>
<g>
</g>
<g>
</g>
<g>
</g>
<g>
</g>
<g>
</g>
</svg>
